HIERARCHY
ROOT Hips
{
 OFFSET 0.000000 0.000000 0.000000
 CHANNELS 6 Xposition Yposition Zposition Yrotation Xrotation Zrotation
 JOINT Chest
 {
  OFFSET 0.000000 10.385163 0.011643
  CHANNELS 3 Yrotation Xrotation Zrotation
  JOINT Chest2
  {
   OFFSET 0.000000 11.579334 -0.021150
   CHANNELS 3 Yrotation Xrotation Zrotation
   JOINT Chest3
   {
    OFFSET 0.000000 10.463212 0.000000
    CHANNELS 3 Yrotation Xrotation Zrotation
    JOINT Chest4
    {
     OFFSET 0.000000 10.463212 0.000000
     CHANNELS 3 Yrotation Xrotation Zrotation
     JOINT Neck
     {
      OFFSET 0.000000 14.544862 0.000000
      CHANNELS 3 Yrotation Xrotation Zrotation
      JOINT Head
      {
       OFFSET 0.000000 9.730630 -0.050295
       CHANNELS 3 Yrotation Xrotation Zrotation
       End Site
       {
        OFFSET 0.000000 18.757589 -0.026270
       }
      }
     }
     JOINT RightCollar
     {
      OFFSET -2.985174 8.102313 0.000000
      CHANNELS 3 Yrotation Xrotation Zrotation
      JOINT RightShoulder
      {
       OFFSET -13.558590 0.000000 0.000000
       CHANNELS 3 Yrotation Xrotation Zrotation
       JOINT RightElbow
       {
        OFFSET -28.208579 0.000000 0.000000
        CHANNELS 3 Yrotation Xrotation Zrotation
        JOINT RightWrist
        {
         OFFSET -23.322907 0.000000 0.010349
         CHANNELS 3 Yrotation Xrotation Zrotation
         End Site
         {
          OFFSET -17.603338 0.000000 0.000000
         }
        }
       }
      }
     }
     JOINT LeftCollar
     {
      OFFSET 2.985174 8.102313 0.000000
      CHANNELS 3 Yrotation Xrotation Zrotation
      JOINT LeftShoulder
      {
       OFFSET 13.558590 0.000000 0.000000
       CHANNELS 3 Yrotation Xrotation Zrotation
       JOINT LeftElbow
       {
        OFFSET 28.208579 0.000000 0.000000
        CHANNELS 3 Yrotation Xrotation Zrotation
        JOINT LeftWrist
        {
         OFFSET 23.322907 0.000000 0.010349
         CHANNELS 3 Yrotation Xrotation Zrotation
         End Site
         {
          OFFSET 17.603338 0.000000 0.000000
         }
        }
       }
      }
     }
    }
   }
  }
 }
 JOINT RightHip
 {
  OFFSET -8.341224 -0.057053 -0.005822
  CHANNELS 3 Yrotation Xrotation Zrotation
  JOINT RightKnee
  {
   OFFSET 0.000000 -44.280013 0.005508
   CHANNELS 3 Yrotation Xrotation Zrotation
   JOINT RightAnkle
   {
    OFFSET 0.000000 -43.261728 0.009315
    CHANNELS 3 Yrotation Xrotation Zrotation
    JOINT RightToe
    {
     OFFSET 0.000000 -8.082955 18.257715
     CHANNELS 3 Yrotation Xrotation Zrotation
     End Site
     {
      OFFSET 0.000000 -1.634678 7.189621
     }
    }
   }
  }
 }
 JOINT LeftHip
 {
  OFFSET 8.341224 -0.057053 -0.005822
  CHANNELS 3 Yrotation Xrotation Zrotation
  JOINT LeftKnee
  {
   OFFSET 0.000000 -44.280013 0.005508
   CHANNELS 3 Yrotation Xrotation Zrotation
   JOINT LeftAnkle
   {
    OFFSET 0.000000 -43.261728 0.009315
    CHANNELS 3 Yrotation Xrotation Zrotation
    JOINT LeftToe
    {
     OFFSET 0.000000 -8.082955 18.257715
     CHANNELS 3 Yrotation Xrotation Zrotation
     End Site
     {
      OFFSET 0.000000 -1.634678 7.189621
     }
    }
   }
  }
 }
}
MOTION
Frames: 7
Frame Time: 0.016667
-82.222768 96.944915 -173.013985 -95.152709 -5.665396 0.355974 -3.529756 6.414687 4.233235 -1.624825 2.818709 1.927248 -1.624825 2.818709 1.927248 -1.227282 2.108952 1.452655 0.197833 12.189659 2.574939 -0.716471 -13.510851 4.833896 -0.208424 -4.087749 3.900045 -18.338351 -4.997597 72.819441 -11.472263 4.346257 -12.254996 4.472952 -0.698132 -6.731014 1.122318 -3.243631 -10.702500 5.127572 -13.795665 -58.871014 -11.137606 12.875590 -2.353663 0.081204 -1.377493 2.823138 -9.266996 -17.453439 2.426720 -13.166387 32.963563 -2.326036 -9.242856 -5.324909 7.648993 0.000000 -0.000000 0.000000 9.860856 10.850455 1.686911 3.144662 6.538667 1.252000 5.070752 -10.092251 -5.986714 0.000000 0.000000 0.000000
-83.428021 96.834183 -172.787939 -96.496805 -5.771860 0.505214 -3.567232 6.384322 4.145251 -1.639993 2.805526 1.888506 -1.639995 2.805509 1.888498 -1.238439 2.099096 1.423631 0.140522 12.227493 2.533980 -0.807087 -13.439661 4.778757 -0.095309 -4.027171 3.760010 -18.815804 -4.769379 72.809033 -12.184961 3.824361 -12.938673 4.447904 -0.703869 -6.783065 1.207560 -3.170277 -10.746692 4.725922 -14.282200 -58.461148 -11.733539 11.135993 -2.450219 -0.512883 -1.817642 3.427099 -10.786431 -15.611138 2.784034 -12.974509 27.560430 -0.474942 -9.361552 -5.503514 8.347385 -0.000000 -0.000000 0.000000 9.981850 11.956334 1.258584 4.021841 6.375290 1.491567 5.462303 -10.430256 -6.330454 -0.000422 -0.448108 0.818635
-84.712574 96.701385 -172.564235 -97.830504 -5.938027 0.719988 -3.594627 6.335178 4.046643 -1.650381 2.784212 1.844787 -1.650369 2.784200 1.844778 -1.245946 2.083202 1.390841 0.092630 12.295824 2.459002 -0.863909 -13.313318 4.653727 0.021610 -3.947227 3.561128 -19.176565 -4.557184 72.884726 -12.913353 3.107592 -13.598060 4.399303 -0.719856 -6.822791 1.300625 -3.091093 -10.848609 4.360062 -14.680757 -58.109759 -12.289426 9.582263 -2.582359 -1.074344 -2.232855 3.958577 -12.279833 -13.432695 2.680150 -13.044196 22.279172 1.761556 -9.279319 -5.738971 9.076329 0.000000 -0.000000 -0.000000 10.190866 13.146646 0.776494 4.758215 6.255900 1.733246 5.838453 -10.759434 -6.714267 -0.006181 -1.118342 1.949622
-85.992009 96.551874 -172.451444 -99.066839 -6.116223 0.969055 -3.639120 6.262242 3.911615 -1.667736 2.752485 1.784980 -1.667736 2.752485 1.784980 -1.258619 2.059533 1.346005 0.081780 12.371427 2.384370 -0.849983 -13.174894 4.513392 0.121193 -3.953846 3.434222 -19.524017 -4.311428 72.890665 -13.554106 2.459954 -14.063818 4.300628 -0.694752 -6.847362 1.404366 -3.072258 -10.932754 4.092714 -15.020978 -57.804765 -12.757272 8.455666 -2.739080 -1.603963 -2.583728 4.418555 -13.639139 -11.397684 2.863499 -12.780744 17.787607 3.356787 -9.110488 -5.613386 8.400210 0.000000 0.000000 0.000000 10.378971 14.087392 0.394337 5.373792 6.626592 1.870191 6.204591 -11.153358 -7.137897 -0.025778 -1.999327 2.811053
-87.231043 96.368058 -172.509337 -100.194524 -6.267565 1.258812 -3.702029 6.135651 3.714924 -1.692156 2.697245 1.697648 -1.692208 2.697234 1.697657 -1.276466 2.018254 1.280498 0.135164 12.463162 2.320997 -0.718038 -13.008532 4.367071 0.184196 -4.099310 3.449260 -19.891649 -3.996631 72.737268 -14.128633 1.948268 -14.255814 4.093619 -0.586808 -6.864626 1.534720 -3.148975 -10.951163 3.931662 -15.318697 -57.521683 -13.074378 7.899526 -2.954106 -2.117236 -2.876930 4.811705 -15.119463 -9.624961 3.900966 -11.690109 14.194747 3.467732 -8.494042 -4.841446 4.948549 0.000000 0.000000 0.000000 10.595466 14.688996 0.186514 5.734484 7.585581 1.828003 6.635843 -11.733348 -7.581422 -0.060207 -3.030077 3.110371
-88.464959 96.167529 -172.678143 -101.225087 -6.430207 1.582061 -3.780434 5.982939 3.483460 -1.722875 2.630623 1.594828 -1.722934 2.630603 1.594835 -1.298894 1.968477 1.203353 0.226184 12.562978 2.259292 -0.515210 -12.828196 4.208463 0.226994 -4.326105 3.541671 -20.244928 -3.656760 72.509082 -14.643115 1.517614 -14.258425 3.834859 -0.438394 -6.876016 1.674987 -3.284264 -10.947116 3.870095 -15.563367 -57.290953 -13.309383 7.764648 -3.250306 -2.591623 -3.115336 5.131345 -16.438991 -7.933058 5.259224 -10.054884 11.276158 2.702255 -7.751567 -3.732195 0.092480 0.000000 0.000000 0.000000 10.803667 15.049757 0.099321 5.959106 9.034632 1.678831 7.057302 -12.377802 -8.068659 -0.106552 -4.271677 3.142752
-89.715175 96.008415 -172.887120 -102.105746 -6.675658 1.886700 -3.896359 5.886143 3.266732 -1.770834 2.588581 1.499369 -1.770834 2.588581 1.499369 -1.334263 1.937126 1.131852 0.301685 12.623704 2.204171 -0.346387 -12.719384 4.070480 0.282539 -4.573897 3.641479 -20.585017 -3.363633 72.311499 -14.982466 1.254597 -14.151469 3.669778 -0.323236 -6.861508 1.779835 -3.435288 -10.982371 3.950291 -15.746597 -57.180766 -13.609605 7.856278 -3.601367 -2.968749 -3.256487 5.356165 -16.698434 -6.373980 6.123919 -8.402954 9.088106 2.059995 -7.936988 -2.909431 -3.579018 0.000000 0.000000 0.000000 10.774562 15.118154 0.100813 6.446315 11.129383 1.539361 7.239120 -12.798344 -8.656756 -0.165267 -5.896121 3.208315
